<svg width="995" height="1359" viewBox="0 0 995 1359" fill="none" xmlns="http://www.w3.org/2000/svg">
<path d="M123.267 3.33323C123.267 5.46656 123.533 6.26656 123.933 4.93323C124.2 3.73323 124.2 1.86656 123.933 0.933231C123.533 0.133231 123.267 1.06656 123.267 3.33323Z" fill="#F5F5DC"/>
<path d="M123.267 24C122.733 50.6667 134.467 84.5333 153.4 111.467C169.133 133.6 194.733 153.867 225.8 168.533C240.733 175.6 275.533 187.867 294.067 192.667C299 194 303 195.467 303 196C303 196.933 297.533 209.733 288.333 230.667C286.2 235.467 281.8 246.267 278.333 254.667C275 263.067 271.133 272.4 269.8 275.333C268.333 278.267 264.467 287.2 261.267 295.333C253.533 314.133 238.467 350.8 229.933 371.333C220.733 393.467 208.467 423.467 198.333 448C193.667 459.333 186.733 476.133 183 485.333C174.2 506.533 156.467 549.867 149 568C145.8 575.733 139.933 590.133 135.933 600C131.8 609.867 124.333 628.133 119.267 640.667C114.067 653.067 103.667 678.667 95.9333 697.333C69.7999 760.8 62.7333 778 57.5333 790.933C54.7333 798.133 51.2666 806.533 49.7999 809.6C47.2666 815.333 34.0666 847.6 24.0666 872.667C21.2666 880 18.0666 887.733 16.9999 890C12.1999 900.4 5.53327 917.733 6.06661 918.267C6.46661 918.533 10.9999 910.267 16.0666 899.733C21.1333 889.2 32.7333 865.6 41.6666 847.333C50.7333 828.933 62.3333 804.933 67.6666 794C72.9999 782.933 83.6666 761.067 91.3999 745.333C124.333 677.733 133.133 659.733 141 643.333C148.6 627.467 161.267 601.733 204.333 514C213 496.4 225.133 471.467 231.4 458.667C237.667 445.867 249.4 421.467 257.667 404.667C272.067 375.2 295.933 325.467 309.933 296C313.667 288.267 319.533 276 323 268.667C326.467 261.333 333.933 244.8 339.667 232C345.267 219.2 350.2 208.267 350.467 207.867C351 207.067 369.8 211.6 390.333 217.467C431.933 229.333 477 251.467 509 275.733C551.933 308.4 587.933 353.067 609.933 401.067C612.867 407.467 615.8 413.867 616.467 415.333C619.267 421.467 624.467 436.533 627.533 447.6C638.733 487.467 643.267 530.533 640.467 570C637.667 608.8 629.667 641.467 615.933 671.067C611.8 680.267 610.067 682.533 608.467 681.867C575 667.733 536.867 655.333 511.8 650.533C494.2 647.2 463.533 646.533 452.333 649.2C433.667 653.6 424.067 658.133 415.667 666.4C392.067 689.867 391.267 738.267 414.2 763.467C437.933 789.867 480.867 790.533 531 765.333C570.733 745.333 589.667 729.2 608.867 698.933L612.333 693.467L618.467 696.133C627.267 699.867 649.8 712.533 661.667 720.4C699.267 745.467 729.933 780.4 750.733 822C776.2 873.2 787.8 930 793 1030.67C798.2 1132.13 804.2 1173.73 820.467 1222C827.533 1242.67 846.067 1281.07 857.4 1298C899.933 1361.87 943.267 1375.07 984.467 1336.27C990.2 1330.8 995 1325.6 995 1324.67C995 1323.6 993.8 1322.4 992.333 1322C990.2 1321.33 987.667 1322.93 981.533 1328.53C976.6 1333.2 969.267 1338.13 962.067 1341.6C943.267 1350.67 928.733 1350.13 910.067 1339.87C900.6 1334.67 898.6 1333.07 887.267 1321.33C873.8 1307.6 859.8 1286.13 847.133 1260C818.333 1200.27 809 1155.6 804.333 1055.33C803.533 1038.4 802.6 1023.2 802.333 1021.33C802.067 1019.47 801.533 1012.27 801 1005.33C799.933 989.6 796.733 959.333 795 948.667C794.333 944.267 792.867 935.2 791.8 928.667C781.4 863.867 756.333 803.333 723 762C700.467 734 672.733 712.8 633.4 693.6C624.733 689.467 617.667 685.333 617.667 684.533C617.667 683.733 619.667 678.533 622.2 673.067C637.8 638.933 647 588.8 647 538.8C647 498.933 641.133 465.867 627 425.867C621.533 410.4 604.067 374.4 594.333 358.667C553.533 292.933 495.267 248.533 410.333 218.667C398.067 214.4 365.667 204.667 359.4 203.333C357 202.8 354.733 201.867 354.333 201.2C353.933 200.667 355.133 195.067 357 189.067C359 182.933 360.867 173.067 361.267 167.067C361.933 156.667 361.8 155.867 358.467 151.467C354.467 146.267 347.667 143.6 341.133 144.933C335.133 146.133 323.533 158.667 315.667 172.4C312.067 178.8 308.333 184.933 307.533 186.133C306.2 188.133 304.6 187.867 290.2 183.467C245.133 169.467 210.733 153.467 184.333 134.267C173.4 126.267 153.8 106 146.467 94.8C133.667 75.6 125.933 52 124.333 27.3333L123.4 12.6667L123.267 24ZM342.733 178C343.267 184.4 340.467 197.333 338.6 197.333C335.533 197.333 321.667 192.933 321.667 192C321.667 190.133 333.4 174.933 335.933 173.467C340.2 170.933 342.333 172.267 342.733 178ZM322.467 200C324.6 200.667 328.867 201.867 331.933 202.667L337.4 204L334.2 212.267C322.333 241.2 305.4 261.6 302.467 250.133C300.867 243.6 306.733 221.333 314.067 206.933C316.333 202.4 318.333 198.667 318.467 198.667C318.467 198.667 320.333 199.2 322.467 200ZM500.333 658C507.267 659.067 520.2 661.733 529 664C556.733 671.067 605.667 688.667 605.667 691.467C605.667 693.2 593 710.133 586.467 717.067C570.2 734.4 536.867 754.4 508.733 763.867C489 770.4 479.4 772.267 463 772.4C442.067 772.667 432.2 769.467 421.533 758.8C411.133 748.4 408.2 740.133 407.267 720C406.6 702 408.2 692.8 413.8 681.467C421.133 666.8 436.067 658.533 460.333 655.467C467.133 654.667 485.667 655.867 500.333 658Z" fill="#F5F5DC"/>
<path d="M2.6 924.667C-0.600003 931.333 -0.0666697 932.4 3.13333 926.267C4.6 923.333 5.66666 920.8 5.4 920.533C5 920.267 3.8 922.133 2.6 924.667Z" fill="#F5F5DC"/>
</svg>
