<svg aria-hidden="true" style="position: absolute; width: 0; height: 0; overflow: hidden;" version="1.1" xmlns="http://www.w3.org/2000/svg" xmlns:xlink="http://www.w3.org/1999/xlink">
<defs>
<symbol id="icon-needle" viewBox="0 0 23 32">
<path d="M2.903 0.079c0 0.050 0.006 0.069 0.016 0.038 0.006-0.028 0.006-0.072 0-0.094-0.009-0.019-0.016 0.003-0.016 0.057z"></path>
<path d="M2.903 0.565c-0.013 0.628 0.264 1.425 0.71 2.060 0.37 0.521 0.973 0.998 1.705 1.344 0.352 0.166 1.171 0.455 1.607 0.568 0.116 0.031 0.21 0.066 0.21 0.078 0 0.022-0.129 0.323-0.345 0.816-0.050 0.113-0.154 0.367-0.235 0.565-0.078 0.198-0.17 0.418-0.201 0.487-0.035 0.069-0.126 0.279-0.201 0.471-0.182 0.443-0.537 1.306-0.738 1.79-0.217 0.521-0.505 1.228-0.744 1.805-0.11 0.267-0.273 0.662-0.361 0.879-0.207 0.499-0.625 1.52-0.801 1.947-0.075 0.182-0.213 0.521-0.308 0.754-0.097 0.232-0.273 0.662-0.392 0.958-0.122 0.292-0.367 0.895-0.549 1.334-0.615 1.494-0.782 1.899-0.904 2.204-0.066 0.17-0.148 0.367-0.182 0.44-0.060 0.135-0.37 0.895-0.606 1.485-0.066 0.173-0.141 0.355-0.166 0.408-0.113 0.245-0.27 0.653-0.257 0.666 0.009 0.006 0.116-0.188 0.235-0.436s0.392-0.804 0.603-1.234c0.214-0.433 0.487-0.998 0.612-1.256 0.126-0.261 0.377-0.775 0.559-1.146 0.775-1.592 0.983-2.016 1.168-2.402 0.179-0.374 0.477-0.98 1.491-3.045 0.204-0.414 0.49-1.002 0.637-1.303s0.424-0.876 0.619-1.272c0.339-0.694 0.901-1.865 1.231-2.559 0.088-0.182 0.226-0.471 0.308-0.644s0.257-0.562 0.392-0.863c0.132-0.301 0.248-0.559 0.254-0.568 0.013-0.019 0.455 0.088 0.939 0.226 0.98 0.279 2.041 0.801 2.794 1.372 1.011 0.769 1.859 1.821 2.377 2.951 0.069 0.151 0.138 0.301 0.154 0.336 0.066 0.144 0.188 0.499 0.261 0.76 0.264 0.939 0.37 1.953 0.305 2.882-0.066 0.914-0.254 1.683-0.578 2.38-0.097 0.217-0.138 0.27-0.176 0.254-0.788-0.333-1.686-0.625-2.276-0.738-0.414-0.078-1.137-0.094-1.4-0.031-0.44 0.104-0.666 0.21-0.863 0.405-0.556 0.553-0.575 1.692-0.035 2.286 0.559 0.622 1.57 0.637 2.75 0.044 0.936-0.471 1.381-0.851 1.834-1.564l0.082-0.129 0.144 0.063c0.207 0.088 0.738 0.386 1.017 0.571 0.885 0.59 1.607 1.413 2.097 2.392 0.6 1.206 0.873 2.543 0.995 4.913 0.122 2.389 0.264 3.369 0.647 4.505 0.166 0.487 0.603 1.391 0.87 1.79 1.002 1.504 2.022 1.815 2.992 0.901 0.135-0.129 0.248-0.251 0.248-0.273 0-0.025-0.028-0.053-0.063-0.063-0.050-0.016-0.11 0.022-0.254 0.154-0.116 0.11-0.289 0.226-0.458 0.308-0.443 0.214-0.785 0.201-1.224-0.041-0.223-0.122-0.27-0.16-0.537-0.437-0.317-0.323-0.647-0.829-0.945-1.444-0.678-1.406-0.898-2.458-1.008-4.819-0.019-0.399-0.041-0.757-0.047-0.801s-0.019-0.213-0.031-0.377c-0.025-0.37-0.1-1.083-0.141-1.334-0.016-0.104-0.050-0.317-0.075-0.471-0.245-1.526-0.835-2.951-1.62-3.924-0.531-0.659-1.184-1.159-2.11-1.611-0.204-0.097-0.37-0.195-0.37-0.213s0.047-0.141 0.107-0.27c0.367-0.804 0.584-1.984 0.584-3.162 0-0.939-0.138-1.717-0.471-2.659-0.129-0.364-0.54-1.212-0.769-1.582-0.961-1.548-2.333-2.593-4.333-3.297-0.289-0.1-1.052-0.33-1.199-0.361-0.056-0.013-0.11-0.035-0.119-0.050-0.009-0.013 0.019-0.144 0.063-0.286 0.047-0.144 0.091-0.377 0.1-0.518 0.016-0.245 0.013-0.264-0.066-0.367-0.094-0.122-0.254-0.185-0.408-0.154-0.141 0.028-0.414 0.323-0.6 0.647-0.085 0.151-0.173 0.295-0.192 0.323-0.031 0.047-0.069 0.041-0.408-0.063-1.061-0.33-1.871-0.706-2.493-1.159-0.257-0.188-0.719-0.666-0.892-0.929-0.301-0.452-0.483-1.008-0.521-1.589l-0.022-0.345-0.003 0.267zM8.070 4.191c0.013 0.151-0.053 0.455-0.097 0.455-0.072 0-0.399-0.104-0.399-0.126 0-0.044 0.276-0.402 0.336-0.436 0.1-0.060 0.151-0.028 0.16 0.107zM7.593 4.709c0.050 0.016 0.151 0.044 0.223 0.063l0.129 0.031-0.075 0.195c-0.279 0.681-0.678 1.162-0.747 0.892-0.038-0.154 0.1-0.678 0.273-1.017 0.053-0.107 0.1-0.195 0.104-0.195 0 0 0.044 0.013 0.094 0.031zM11.781 15.494c0.163 0.025 0.468 0.088 0.675 0.141 0.653 0.166 1.805 0.581 1.805 0.647 0 0.041-0.298 0.44-0.452 0.603-0.383 0.408-1.168 0.879-1.83 1.102-0.465 0.154-0.691 0.198-1.077 0.201-0.493 0.006-0.725-0.069-0.976-0.32-0.245-0.245-0.314-0.44-0.336-0.914-0.016-0.424 0.022-0.64 0.154-0.907 0.173-0.345 0.524-0.54 1.096-0.612 0.16-0.019 0.597 0.009 0.942 0.060z"></path>
<path d="M0.061 21.773c-0.075 0.157-0.063 0.182 0.013 0.038 0.035-0.069 0.060-0.129 0.053-0.135-0.009-0.006-0.038 0.038-0.066 0.097z"></path>
</symbol>
</defs>
</svg>
